
<svg xmlns="http://www.w3.org/2000/svg" viewBox="0 0 587.697 587.697">

    <rect y="162.123" style="fill:#FDA72F;" width="202.654" height="121.592"/>

    <g style="fill:#000;">
        <path d="M53.632,243.418l-20.265-20.265c-3.952-3.952-3.952-10.376,0-14.328l20.265-20.265l14.328,14.328 l-13.102,13.102L67.96,229.09L53.632,243.418z"/>
        <rect x="69.277" y="205.862" transform="matrix(0.3164 -0.9486 0.9486 0.3164 -135.6354 243.7679)" width="64.088" height="20.265"/>
        <path d="M149.022,243.418l-14.328-14.328l13.102-13.102l-13.102-13.102l14.328-14.328l20.265,20.265 c3.952,3.952,3.952,10.376,0,14.328L149.022,243.418z"/>

    </g>



    <rect x="243.185" y="60.796" style="fill:#4398D1;" width="344.512" height="202.654"/>
	<polygon style="fill:#3269A1;" points="587.697,222.919 516.768,182.389 438.523,222.919 344.512,162.123 243.185,222.919 
		243.185,263.45 587.697,263.45 			"/>
	<circle style="fill:#E34B87;" cx="471.171" cy="126.659" r="25.332"/>
	<rect x="101.327" y="324.246" style="fill:#4398D1;" width="253.317" height="121.592"/>




    <rect x="395.175" y="364.777" style="fill:#4398D1;" width="192.521" height="121.592"/>
    <g style="fill:#00dcff">
        <rect x="131.725" y="354.644" width="40.531" height="20.265"/>
        <rect x="192.521" y="354.644" width="91.194" height="20.265"/>
        <rect x="303.981" y="354.644" width="20.265" height="20.265"/>
        <rect x="131.725" y="395.175" width="121.592" height="20.265"/>
        <rect x="273.583" y="395.175" width="50.663" height="20.265"/>
    </g>

    <g style="fill:#fff">
        <rect x="425.573" y="395.175" width="20.265" height="20.265"/>
        <rect x="425.573" y="435.706" width="20.265" height="20.265"/>
        <rect x="466.104" y="395.175" width="91.194" height="20.265"/>
        <rect x="466.104" y="435.706" width="91.194" height="20.265"/>
    </g>

    <rect x="263.45" y="263.45" style="fill:#71C4D1;" width="263.45" height="20.265"/>
	<rect x="415.441" y="486.37" style="fill:#71C4D1;" width="111.46" height="20.265"/>
	<polygon style="fill:#71C4D1;" points="202.654,182.389 202.654,283.716 60.796,283.716 60.796,303.981 222.919,303.981 222.919,182.389"/>
	<polygon style="fill:#71C4D1;" points="354.644,344.512 354.644,445.839 121.592,445.839 121.592,466.104 374.91,466.104 374.91,344.512"/>



</svg>
